<?xml version="1.0" encoding="UTF-8"?>
<svg id="Camada_1" xmlns="http://www.w3.org/2000/svg" version="1.1" viewBox="0 0 600 112.38">
  <!-- Generator: Adobe Illustrator 29.7.1, SVG Export Plug-In . SVG Version: 2.1.1 Build 8)  -->
  <defs>
    <style>
      .st0 {
        fill: #609beb;
      }

      .st1 {
        fill: #3c5d80;
      }

      .st2 {
        fill: #74c3ee;
      }
    </style>
  </defs>
  <g>
    <path class="st2" d="M45.6,62.37l23.99-44.98c3.07-5.76.89-12.93-4.87-16-5.76-3.07-12.93-.89-16,4.87L10.13,78.6c9.56-9.17,22.02-14.96,35.47-16.23Z"/>
    <path class="st0" d="M70.58,65.06h-19.32c-20.92,0-40.02,11.46-49.87,29.92-3.07,5.76-.89,12.93,4.87,16,1.77.95,3.68,1.39,5.56,1.39,4.23,0,8.32-2.27,10.45-6.26,5.72-10.73,16.83-17.39,28.99-17.39h5.13c12.14,0,19.91-12.94,14.19-23.66h0Z"/>
    <path class="st0" d="M106.47,112.38c-4.23,0-8.32-2.27-10.45-6.26L48.71,17.4c-3.07-5.76-.89-12.93,4.87-16,5.76-3.07,12.93-.89,16,4.87l47.31,88.71c3.07,5.76.89,12.93-4.87,16-1.77.95-3.68,1.39-5.56,1.39Z"/>
  </g>
  <g>
    <path class="st1" d="M213.12,84.28l-4.04-11.16h-22.4l-4.04,11.16h-14.08l21.99-56.19h15.15l21.99,56.19h-14.58ZM190.47,62.68h14.91l-7.5-20.73-7.41,20.73Z"/>
    <path class="st1" d="M244.92,84.28v-45.35h-16.14v-10.84h46.12v10.84h-16.06v45.35h-13.92Z"/>
    <path class="st1" d="M289.15,84.28V28.09h19.77l12.85,39.25,12.93-39.25h18.7v56.19h-13.1v-40.68l-13.43,40.68h-10.79l-13.59-40.84v40.84h-13.34Z"/>
    <path class="st1" d="M410.97,84.28l-4.04-11.16h-22.4l-4.04,11.16h-14.08l21.99-56.19h15.15l21.99,56.19h-14.58ZM388.32,62.68h14.91l-7.49-20.73-7.41,20.73Z"/>
    <path class="st1" d="M481.8,84.28l-6.67-16.54h-27.51l-6.67,16.54h-5.35l23.14-56.19h5.6l23.06,56.19h-5.6ZM449.43,63.31h23.89l-11.94-29.44-11.94,29.44Z"/>
    <path class="st1" d="M502.81,84.28V28.09h21.83c11.12,0,18.37,5.38,18.37,15.43v1.58c0,10.05-7.25,15.43-18.37,15.43h-16.55v23.74h-5.27ZM508.08,56.11h16.64c7.91,0,12.93-3.64,12.93-11v-1.58c0-7.36-5.02-11-12.93-11h-16.64v23.58Z"/>
    <path class="st1" d="M559.81,84.28V28.09h21.83c11.12,0,18.37,5.38,18.37,15.43v1.58c0,10.05-7.25,15.43-18.37,15.43h-16.55v23.74h-5.27ZM565.08,56.11h16.64c7.91,0,12.93-3.64,12.93-11v-1.58c0-7.36-5.02-11-12.93-11h-16.64v23.58Z"/>
  </g>
</svg>